G04*
G04 #@! TF.GenerationSoftware,Altium Limited,Altium Designer,23.9.2 (47)*
G04*
G04 Layer_Color=32896*
%FSLAX44Y44*%
%MOMM*%
G71*
G04*
G04 #@! TF.SameCoordinates,9D5C7968-D515-41F9-BB10-8EC871C6CEE0*
G04*
G04*
G04 #@! TF.FilePolarity,Positive*
G04*
G01*
G75*
G36*
X777017Y709850D02*
X777318Y709818D01*
X777620Y709777D01*
X777891Y709714D01*
X778152Y709641D01*
X778381Y709569D01*
X778599Y709475D01*
X778797Y709391D01*
X778974Y709308D01*
X779120Y709225D01*
X779256Y709142D01*
X779360Y709069D01*
X779443Y709006D01*
X779505Y708964D01*
X779547Y708933D01*
X779557Y708923D01*
X779745Y708735D01*
X779912Y708538D01*
X780068Y708329D01*
X780193Y708100D01*
X780307Y707881D01*
X780411Y707652D01*
X780495Y707434D01*
X780568Y707215D01*
X780620Y707017D01*
X780672Y706830D01*
X780703Y706653D01*
X780734Y706507D01*
X780755Y706382D01*
X780766Y706299D01*
X780776Y706236D01*
Y706215D01*
X779183Y706049D01*
X779172Y706267D01*
X779151Y706465D01*
X779120Y706663D01*
X779079Y706840D01*
X779026Y707007D01*
X778974Y707152D01*
X778912Y707298D01*
X778849Y707423D01*
X778787Y707527D01*
X778724Y707632D01*
X778672Y707715D01*
X778620Y707777D01*
X778579Y707829D01*
X778547Y707871D01*
X778527Y707892D01*
X778516Y707902D01*
X778381Y708017D01*
X778245Y708121D01*
X778100Y708215D01*
X777954Y708298D01*
X777797Y708361D01*
X777652Y708413D01*
X777360Y708496D01*
X777225Y708527D01*
X777110Y708548D01*
X776996Y708558D01*
X776902Y708569D01*
X776819Y708579D01*
X776714D01*
X776517Y708569D01*
X776340Y708548D01*
X776162Y708517D01*
X776006Y708485D01*
X775850Y708433D01*
X775715Y708381D01*
X775579Y708319D01*
X775465Y708267D01*
X775361Y708204D01*
X775267Y708142D01*
X775194Y708090D01*
X775121Y708048D01*
X775069Y708007D01*
X775038Y707975D01*
X775017Y707954D01*
X775007Y707944D01*
X774892Y707819D01*
X774788Y707694D01*
X774694Y707569D01*
X774621Y707434D01*
X774559Y707298D01*
X774507Y707173D01*
X774423Y706934D01*
X774392Y706819D01*
X774371Y706715D01*
X774361Y706621D01*
X774351Y706548D01*
X774340Y706486D01*
Y706434D01*
Y706403D01*
Y706392D01*
X774351Y706226D01*
X774371Y706059D01*
X774403Y705892D01*
X774455Y705736D01*
X774569Y705413D01*
X774705Y705132D01*
X774767Y705007D01*
X774840Y704893D01*
X774902Y704789D01*
X774955Y704695D01*
X775007Y704622D01*
X775038Y704570D01*
X775059Y704539D01*
X775069Y704528D01*
X775215Y704341D01*
X775392Y704132D01*
X775590Y703924D01*
X775808Y703695D01*
X776027Y703476D01*
X776267Y703258D01*
X776496Y703039D01*
X776725Y702831D01*
X776954Y702633D01*
X777162Y702445D01*
X777350Y702279D01*
X777516Y702143D01*
X777652Y702029D01*
X777756Y701935D01*
X777797Y701904D01*
X777829Y701883D01*
X777839Y701862D01*
X777850D01*
X778089Y701664D01*
X778318Y701467D01*
X778527Y701289D01*
X778724Y701112D01*
X778901Y700946D01*
X779068Y700779D01*
X779224Y700633D01*
X779360Y700508D01*
X779485Y700383D01*
X779589Y700279D01*
X779672Y700185D01*
X779745Y700102D01*
X779807Y700040D01*
X779849Y699998D01*
X779870Y699967D01*
X779880Y699956D01*
X780120Y699644D01*
X780328Y699352D01*
X780505Y699061D01*
X780651Y698811D01*
X780703Y698696D01*
X780755Y698592D01*
X780797Y698499D01*
X780828Y698426D01*
X780859Y698363D01*
X780880Y698321D01*
X780891Y698290D01*
Y698280D01*
X780953Y698082D01*
X781005Y697895D01*
X781036Y697707D01*
X781057Y697551D01*
X781068Y697405D01*
Y697301D01*
Y697259D01*
Y697228D01*
Y697218D01*
Y697207D01*
X772726D01*
Y698696D01*
X778922D01*
X778818Y698853D01*
X778714Y698998D01*
X778599Y699144D01*
X778495Y699269D01*
X778401Y699373D01*
X778329Y699457D01*
X778287Y699509D01*
X778266Y699529D01*
X778183Y699613D01*
X778079Y699717D01*
X777954Y699831D01*
X777818Y699956D01*
X777527Y700217D01*
X777225Y700477D01*
X777079Y700602D01*
X776933Y700717D01*
X776808Y700831D01*
X776694Y700925D01*
X776610Y700998D01*
X776537Y701060D01*
X776485Y701102D01*
X776475Y701112D01*
X776173Y701373D01*
X775892Y701612D01*
X775631Y701841D01*
X775402Y702060D01*
X775184Y702258D01*
X774986Y702435D01*
X774809Y702602D01*
X774652Y702758D01*
X774517Y702883D01*
X774403Y702997D01*
X774309Y703102D01*
X774225Y703185D01*
X774163Y703247D01*
X774121Y703289D01*
X774101Y703320D01*
X774090Y703331D01*
X773840Y703633D01*
X773622Y703914D01*
X773445Y704174D01*
X773309Y704403D01*
X773247Y704507D01*
X773195Y704601D01*
X773153Y704674D01*
X773122Y704747D01*
X773090Y704799D01*
X773070Y704841D01*
X773059Y704861D01*
Y704872D01*
X772955Y705143D01*
X772882Y705413D01*
X772820Y705663D01*
X772788Y705892D01*
X772768Y705986D01*
Y706080D01*
X772757Y706163D01*
X772747Y706236D01*
Y706288D01*
Y706330D01*
Y706351D01*
Y706361D01*
X772757Y706632D01*
X772788Y706892D01*
X772840Y707142D01*
X772913Y707371D01*
X772997Y707590D01*
X773080Y707798D01*
X773174Y707986D01*
X773278Y708163D01*
X773372Y708319D01*
X773476Y708454D01*
X773559Y708569D01*
X773642Y708673D01*
X773715Y708746D01*
X773767Y708808D01*
X773799Y708840D01*
X773809Y708850D01*
X774017Y709027D01*
X774236Y709183D01*
X774465Y709319D01*
X774705Y709433D01*
X774944Y709537D01*
X775184Y709610D01*
X775423Y709683D01*
X775642Y709735D01*
X775861Y709777D01*
X776058Y709808D01*
X776225Y709829D01*
X776381Y709850D01*
X776506D01*
X776600Y709860D01*
X776683D01*
X777017Y709850D01*
D02*
G37*
G36*
X792940Y702529D02*
X792929Y702164D01*
X792919Y701821D01*
X792898Y701498D01*
X792867Y701196D01*
X792825Y700915D01*
X792783Y700654D01*
X792742Y700415D01*
X792700Y700206D01*
X792658Y700008D01*
X792617Y699842D01*
X792575Y699706D01*
X792533Y699582D01*
X792502Y699498D01*
X792481Y699425D01*
X792460Y699384D01*
Y699373D01*
X792367Y699165D01*
X792252Y698967D01*
X792138Y698780D01*
X792002Y698613D01*
X791877Y698446D01*
X791742Y698301D01*
X791607Y698176D01*
X791481Y698051D01*
X791357Y697946D01*
X791242Y697863D01*
X791127Y697780D01*
X791044Y697717D01*
X790961Y697665D01*
X790909Y697634D01*
X790867Y697613D01*
X790857Y697603D01*
X790638Y697499D01*
X790409Y697405D01*
X790169Y697322D01*
X789919Y697259D01*
X789680Y697197D01*
X789440Y697145D01*
X789201Y697103D01*
X788982Y697072D01*
X788764Y697051D01*
X788576Y697030D01*
X788399Y697020D01*
X788243Y697009D01*
X788118Y696999D01*
X787951D01*
X787618Y697009D01*
X787306Y697030D01*
X787003Y697061D01*
X786722Y697113D01*
X786462Y697166D01*
X786223Y697218D01*
X785993Y697280D01*
X785796Y697353D01*
X785618Y697415D01*
X785452Y697478D01*
X785316Y697530D01*
X785212Y697592D01*
X785119Y697634D01*
X785056Y697665D01*
X785014Y697686D01*
X785004Y697697D01*
X784796Y697832D01*
X784619Y697978D01*
X784442Y698124D01*
X784286Y698269D01*
X784150Y698426D01*
X784015Y698582D01*
X783911Y698728D01*
X783806Y698863D01*
X783723Y698998D01*
X783650Y699123D01*
X783588Y699228D01*
X783536Y699321D01*
X783494Y699405D01*
X783473Y699457D01*
X783452Y699498D01*
Y699509D01*
X783379Y699727D01*
X783307Y699967D01*
X783202Y700456D01*
X783119Y700956D01*
X783088Y701206D01*
X783067Y701446D01*
X783046Y701664D01*
X783036Y701873D01*
X783025Y702060D01*
Y702216D01*
X783015Y702352D01*
Y702445D01*
Y702508D01*
Y702529D01*
Y709818D01*
X784681D01*
Y702539D01*
X784692Y702112D01*
X784712Y701727D01*
X784754Y701362D01*
X784806Y701040D01*
X784869Y700748D01*
X784931Y700488D01*
X785004Y700258D01*
X785077Y700050D01*
X785150Y699883D01*
X785223Y699727D01*
X785285Y699613D01*
X785348Y699509D01*
X785400Y699436D01*
X785441Y699384D01*
X785462Y699352D01*
X785473Y699342D01*
X785629Y699196D01*
X785806Y699071D01*
X786004Y698957D01*
X786212Y698863D01*
X786431Y698780D01*
X786649Y698717D01*
X786868Y698655D01*
X787076Y698613D01*
X787285Y698582D01*
X787472Y698550D01*
X787649Y698530D01*
X787795Y698519D01*
X787920D01*
X788014Y698509D01*
X788097D01*
X788482Y698530D01*
X788836Y698571D01*
X789003Y698603D01*
X789149Y698644D01*
X789295Y698676D01*
X789420Y698717D01*
X789534Y698759D01*
X789638Y698790D01*
X789722Y698832D01*
X789794Y698863D01*
X789857Y698884D01*
X789899Y698905D01*
X789919Y698925D01*
X789930D01*
X790190Y699092D01*
X790409Y699290D01*
X790586Y699488D01*
X790732Y699686D01*
X790836Y699852D01*
X790878Y699925D01*
X790909Y699998D01*
X790940Y700050D01*
X790961Y700092D01*
X790971Y700113D01*
Y700123D01*
X791023Y700279D01*
X791075Y700456D01*
X791107Y700633D01*
X791148Y700831D01*
X791200Y701227D01*
X791232Y701623D01*
X791252Y701810D01*
Y701977D01*
X791263Y702133D01*
X791273Y702268D01*
Y702383D01*
Y702466D01*
Y702518D01*
Y702539D01*
Y709818D01*
X792940D01*
Y702529D01*
D02*
G37*
M02*
