G04*
G04 #@! TF.GenerationSoftware,Altium Limited,Altium Designer,23.9.2 (47)*
G04*
G04 Layer_Physical_Order=2*
G04 Layer_Color=16711680*
%FSLAX44Y44*%
%MOMM*%
G71*
G04*
G04 #@! TF.SameCoordinates,9D5C7968-D515-41F9-BB10-8EC871C6CEE0*
G04*
G04*
G04 #@! TF.FilePolarity,Positive*
G04*
G01*
G75*
%ADD21C,0.1524*%
%ADD22C,1.5598*%
%ADD23R,1.5598X1.5598*%
%ADD24C,0.7564*%
D21*
X800100Y616699D02*
Y622300D01*
X628650D02*
X800100D01*
Y615950D02*
Y616699D01*
Y413499D02*
Y419100D01*
X673100Y546100D02*
Y584200D01*
Y546100D02*
X800100Y419100D01*
Y412750D02*
Y413499D01*
D22*
X546100Y159499D02*
D03*
Y184899D02*
D03*
Y210299D02*
D03*
Y235699D02*
D03*
Y261099D02*
D03*
Y286499D02*
D03*
Y311899D02*
D03*
Y337299D02*
D03*
Y362699D02*
D03*
Y388099D02*
D03*
Y413499D02*
D03*
Y438899D02*
D03*
Y464299D02*
D03*
Y489699D02*
D03*
Y515099D02*
D03*
Y540499D02*
D03*
Y565899D02*
D03*
Y591299D02*
D03*
Y616699D02*
D03*
X800100Y184899D02*
D03*
Y210299D02*
D03*
Y235699D02*
D03*
Y261099D02*
D03*
Y286499D02*
D03*
Y311899D02*
D03*
Y337299D02*
D03*
Y362699D02*
D03*
Y388099D02*
D03*
Y413499D02*
D03*
Y438899D02*
D03*
Y464299D02*
D03*
Y489699D02*
D03*
Y515099D02*
D03*
Y540499D02*
D03*
Y565899D02*
D03*
Y159499D02*
D03*
Y591299D02*
D03*
D23*
Y616699D02*
D03*
D24*
X723900Y520700D02*
D03*
X755650Y552450D02*
D03*
X628650Y622300D02*
D03*
X673100Y584200D02*
D03*
M02*
