G04*
G04 #@! TF.GenerationSoftware,Altium Limited,Altium Designer,23.9.2 (47)*
G04*
G04 Layer_Physical_Order=1*
G04 Layer_Color=255*
%FSLAX44Y44*%
%MOMM*%
G71*
G04*
G04 #@! TF.SameCoordinates,9D5C7968-D515-41F9-BB10-8EC871C6CEE0*
G04*
G04*
G04 #@! TF.FilePolarity,Positive*
G04*
G01*
G75*
%ADD10R,1.3000X1.5001*%
%ADD11R,3.4000X4.5999*%
%ADD12R,2.4501X1.0000*%
%ADD13R,1.0000X2.4501*%
%ADD21C,0.1524*%
%ADD22C,1.5598*%
%ADD23R,1.5598X1.5598*%
%ADD24C,0.7564*%
D10*
X606400Y520700D02*
D03*
X587400D02*
D03*
D11*
X653034Y254000D02*
D03*
X693166D02*
D03*
Y317500D02*
D03*
X653034D02*
D03*
X693166Y381000D02*
D03*
X653034D02*
D03*
X693166Y444500D02*
D03*
X653034D02*
D03*
D12*
X736049Y682600D02*
D03*
Y668599D02*
D03*
Y654601D02*
D03*
Y640601D02*
D03*
Y626600D02*
D03*
Y612600D02*
D03*
Y598599D02*
D03*
Y584599D02*
D03*
X610151Y598599D02*
D03*
Y612600D02*
D03*
Y626600D02*
D03*
Y640601D02*
D03*
Y654601D02*
D03*
Y668599D02*
D03*
Y682600D02*
D03*
Y584599D02*
D03*
D13*
X722099Y561650D02*
D03*
X708101D02*
D03*
X694101D02*
D03*
X680100D02*
D03*
X666100D02*
D03*
X652099D02*
D03*
X638099D02*
D03*
X624101D02*
D03*
D21*
X693166Y381000D02*
X698500D01*
X736049Y612600D02*
X736600Y609600D01*
X698500Y381000D02*
X762000Y444500D01*
Y609600D01*
X736600D02*
X762000D01*
X800100Y388099D02*
Y393700D01*
X736049Y654601D02*
X736600Y654050D01*
X787400Y406400D02*
X800100Y393700D01*
X787400Y406400D02*
Y654050D01*
X736600D02*
X787400D01*
X546100Y412750D02*
Y413499D01*
X641350Y317500D02*
X653034D01*
X546100Y412750D02*
X641350Y317500D01*
X693166D02*
X698500D01*
X736049Y626600D02*
X736600Y622300D01*
X698500Y317500D02*
X768350Y387350D01*
Y622300D01*
X736600D02*
X768350D01*
X647700Y381000D02*
X653034D01*
X546100Y438150D02*
Y438899D01*
X628650Y400050D02*
X647700Y381000D01*
X628650Y400050D02*
Y438150D01*
X546100D02*
X628650D01*
X546100Y590550D02*
Y591299D01*
X641350Y444500D02*
X653034D01*
X577850Y508000D02*
X641350Y444500D01*
X577850Y508000D02*
Y558800D01*
X546100Y590550D02*
X577850Y558800D01*
X736049Y598599D02*
X736600Y596900D01*
X755650Y552450D02*
Y596900D01*
X736600D02*
X755650D01*
X693166Y444500D02*
X698500D01*
Y495300D01*
X723900Y520700D01*
X755650Y552450D01*
X647700Y254000D02*
X653034D01*
X546100Y387350D02*
Y388099D01*
X628650Y273050D02*
X647700Y254000D01*
X628650Y273050D02*
Y304800D01*
X546100Y387350D02*
X628650Y304800D01*
X692150Y254000D02*
X693166D01*
X730250Y584200D02*
X736049Y584599D01*
X673100Y273050D02*
X692150Y254000D01*
X673100Y273050D02*
Y482600D01*
X730250Y539750D01*
Y584200D01*
X666100Y561650D02*
X666750Y565150D01*
X610151Y584599D02*
X615950Y584200D01*
X666750Y565150D02*
Y584200D01*
X615950D02*
X666750D01*
X730250Y666750D02*
X736049Y668599D01*
X717550Y628650D02*
Y666750D01*
X730250D01*
X717550Y565150D02*
X722099Y561650D01*
X717550Y565150D02*
Y628650D01*
X730250Y641350D02*
X736049Y640601D01*
X679450Y565150D02*
X680100Y561650D01*
X685800Y596900D02*
X717550Y628650D01*
X730250Y641350D01*
X685800Y571500D02*
Y596900D01*
X679450Y565150D02*
X685800Y571500D01*
X666750Y565150D02*
X679450D01*
X609600Y584200D02*
X610151Y584599D01*
X606400Y520700D02*
X609600D01*
Y584200D01*
X736049Y682600D02*
X736600Y679450D01*
X736049Y668599D02*
X736600Y673100D01*
Y679450D01*
X610151Y626600D02*
X615950Y622300D01*
X628650D01*
X610151Y612600D02*
X615950Y615950D01*
Y622300D01*
X610151Y612600D02*
X615950Y609600D01*
X610151Y598599D02*
X615950Y603250D01*
Y609600D01*
X609600D02*
X610151Y612600D01*
X587400Y520700D02*
X590550D01*
Y590550D02*
X609600Y609600D01*
X590550Y520700D02*
Y590550D01*
X609600Y596900D02*
X610151Y598599D01*
Y654601D02*
X615950Y654050D01*
X622300D01*
X635000Y641350D01*
Y622300D02*
Y641350D01*
Y622300D02*
X673100Y584200D01*
D22*
X546100Y159499D02*
D03*
Y184899D02*
D03*
Y210299D02*
D03*
Y235699D02*
D03*
Y261099D02*
D03*
Y286499D02*
D03*
Y311899D02*
D03*
Y337299D02*
D03*
Y362699D02*
D03*
Y388099D02*
D03*
Y413499D02*
D03*
Y438899D02*
D03*
Y464299D02*
D03*
Y489699D02*
D03*
Y515099D02*
D03*
Y540499D02*
D03*
Y565899D02*
D03*
Y591299D02*
D03*
Y616699D02*
D03*
X800100Y184899D02*
D03*
Y210299D02*
D03*
Y235699D02*
D03*
Y261099D02*
D03*
Y286499D02*
D03*
Y311899D02*
D03*
Y337299D02*
D03*
Y362699D02*
D03*
Y388099D02*
D03*
Y413499D02*
D03*
Y438899D02*
D03*
Y464299D02*
D03*
Y489699D02*
D03*
Y515099D02*
D03*
Y540499D02*
D03*
Y565899D02*
D03*
Y159499D02*
D03*
Y591299D02*
D03*
D23*
Y616699D02*
D03*
D24*
X723900Y520700D02*
D03*
X755650Y552450D02*
D03*
X628650Y622300D02*
D03*
X673100Y584200D02*
D03*
M02*
