G04*
G04 #@! TF.GenerationSoftware,Altium Limited,Altium Designer,23.9.2 (47)*
G04*
G04 Layer_Color=8421504*
%FSLAX44Y44*%
%MOMM*%
G71*
G04*
G04 #@! TF.SameCoordinates,9D5C7968-D515-41F9-BB10-8EC871C6CEE0*
G04*
G04*
G04 #@! TF.FilePolarity,Positive*
G04*
G01*
G75*
%ADD10R,1.3000X1.5001*%
%ADD11R,3.4000X4.5999*%
%ADD12R,2.4501X1.0000*%
%ADD13R,1.0000X2.4501*%
D10*
X606400Y520700D02*
D03*
X587400D02*
D03*
D11*
X653034Y254000D02*
D03*
X693166D02*
D03*
Y317500D02*
D03*
X653034D02*
D03*
X693166Y381000D02*
D03*
X653034D02*
D03*
X693166Y444500D02*
D03*
X653034D02*
D03*
D12*
X736049Y682600D02*
D03*
Y668599D02*
D03*
Y654601D02*
D03*
Y640601D02*
D03*
Y626600D02*
D03*
Y612600D02*
D03*
Y598599D02*
D03*
Y584599D02*
D03*
X610151Y598599D02*
D03*
Y612600D02*
D03*
Y626600D02*
D03*
Y640601D02*
D03*
Y654601D02*
D03*
Y668599D02*
D03*
Y682600D02*
D03*
Y584599D02*
D03*
D13*
X722099Y561650D02*
D03*
X708101D02*
D03*
X694101D02*
D03*
X680100D02*
D03*
X666100D02*
D03*
X652099D02*
D03*
X638099D02*
D03*
X624101D02*
D03*
M02*
